<?xml version="1.0" encoding="UTF-8"?>
<svg id="Layer_1" data-name="Layer 1" xmlns="http://www.w3.org/2000/svg" viewBox="0 0 408.28 408.28">
  <defs>
    <style>
      .cls-1 {
        fill: #faae40;
      }
    </style>
  </defs>
  <path class="cls-1" d="M204.14,34.66c-93.45,0-169.47,76.03-169.47,169.47s76.03,169.47,169.47,169.47,169.47-76.03,169.47-169.47S297.59,34.66,204.14,34.66Zm0,314.24c-79.83,0-144.77-64.94-144.77-144.77S124.31,59.37,204.14,59.37s144.77,64.94,144.77,144.77-64.94,144.77-144.77,144.77Z"/>
  <path class="cls-1" d="M265.14,193.99h-48.65v-48.65c0-6.82-5.53-12.35-12.35-12.35s-12.35,5.53-12.35,12.35v48.65h-48.65c-6.82,0-12.35,5.53-12.35,12.35s5.53,12.35,12.35,12.35h48.65v48.65c0,6.82,5.53,12.35,12.35,12.35s12.35-5.53,12.35-12.35v-48.65h48.65c6.82,0,12.35-5.53,12.35-12.35s-5.53-12.35-12.35-12.35Z"/>
</svg>