<?xml version="1.0" encoding="UTF-8"?>
<svg id="Layer_1" data-name="Layer 1" xmlns="http://www.w3.org/2000/svg" viewBox="0 0 408.28 408.28">
  <defs>
    <style>
      .cls-1 {
        fill: #faae40;
      }
    </style>
  </defs>
  <path class="cls-1" d="M294.29,159.27l-49.65-6.49-22.8-44.58c-3.65-7.13-10.93-11.49-18.88-11.37-8,.11-15.11,4.68-18.55,11.9l-21.52,45.22-49.45,7.91c-7.9,1.26-14.28,6.8-16.65,14.45-2.36,7.65-.22,15.82,5.59,21.32l36.35,34.43-7.76,49.47c-1.24,7.91,2.05,15.68,8.6,20.29,3.61,2.55,7.8,3.84,12.01,3.84,3.42,0,6.85-.85,9.99-2.56l43.98-23.94,44.65,22.66c7.14,3.62,15.55,2.89,21.96-1.9,6.41-4.8,9.48-12.66,8.01-20.53l-9.17-49.23,35.35-35.46c5.65-5.67,7.56-13.9,4.97-21.47-2.58-7.58-9.12-12.93-17.05-13.96Zm-44.55,58.52c-2.77,2.77-3.99,6.73-3.27,10.58l9.23,49.54-44.94-22.81c-3.49-1.77-7.64-1.71-11.07,.16l-44.27,24.09,7.81-49.79c.61-3.87-.73-7.79-3.57-10.48l-36.59-34.66,49.76-7.96c3.87-.62,7.18-3.1,8.87-6.64l21.65-45.51,22.95,44.87c1.78,3.49,5.17,5.87,9.05,6.38l49.97,6.53-35.58,35.69Z"/>
  <path class="cls-1" d="M204.14,34.66c-93.45,0-169.47,76.03-169.47,169.47s76.03,169.47,169.47,169.47,169.47-76.03,169.47-169.47S297.59,34.66,204.14,34.66Zm0,315.15c-80.32,0-145.67-65.35-145.67-145.67S123.81,58.47,204.14,58.47s145.67,65.35,145.67,145.67-65.35,145.67-145.67,145.67Z"/>
</svg>