<?xml version="1.0" encoding="UTF-8"?>
<svg id="Layer_1" data-name="Layer 1" xmlns="http://www.w3.org/2000/svg" viewBox="0 0 408.28 408.28">
  <defs>
    <style>
      .cls-1 {
        fill: #faae40;
      }
    </style>
  </defs>
  <path class="cls-1" d="M363.94,227.32c-6.74-1.54-13.44,2.66-14.98,9.39-6.04,26.34-19.4,50.43-38.62,69.65-56.36,56.36-148.07,56.36-204.43,0-18.08-18.08-30.96-40.46-37.46-64.97l23.68,13.68c5.98,3.45,13.62,1.4,17.08-4.57,3.45-5.98,1.4-13.62-4.57-17.08l-54.5-31.47c-5.98-3.45-13.62-1.4-17.08,4.57L1.68,260.86c-3.45,5.98-1.4,13.62,4.57,17.08,1.97,1.14,4.12,1.68,6.24,1.68,4.32,0,8.52-2.24,10.84-6.25l19.29-33.4c.03,.77,.12,1.56,.3,2.34,7.1,30.92,22.77,59.19,45.31,81.74,33.05,33.05,76.47,49.58,119.89,49.58s86.84-16.53,119.89-49.58c22.55-22.55,38.22-50.81,45.31-81.74,1.54-6.73-2.66-13.44-9.39-14.98Z"/>
  <path class="cls-1" d="M402.02,117.25c-5.98-3.45-13.62-1.4-17.08,4.57l-16.18,28.02c-8.3-24.57-22.27-47.12-40.75-65.61-66.11-66.11-173.68-66.11-239.79,0-20.4,20.4-35.32,45.75-43.16,73.31-1.89,6.64,1.96,13.55,8.6,15.44,6.64,1.89,13.56-1.96,15.44-8.6,6.68-23.48,19.4-45.08,36.79-62.47,56.36-56.36,148.07-56.36,204.43,0,15.45,15.45,27.2,34.22,34.32,54.67l-28.51-16.47c-5.98-3.45-13.62-1.41-17.08,4.57-3.45,5.98-1.4,13.62,4.57,17.08l54.5,31.47c1.97,1.14,4.12,1.68,6.24,1.68,4.32,0,8.52-2.24,10.84-6.25l31.38-54.35c3.45-5.98,1.4-13.62-4.57-17.08Z"/>
</svg>