<?xml version="1.0" encoding="UTF-8"?>
<svg id="Layer_1" data-name="Layer 1" xmlns="http://www.w3.org/2000/svg" viewBox="0 0 408.28 408.28">
  <defs>
    <style>
      .cls-1 {
        fill: #faae40;
      }
    </style>
  </defs>
  <path class="cls-1" d="M336.95,52.45c-29.18-18.3-64.44-22.43-96.73-11.31-12.98,4.47-25,11.25-35.78,20.18-24.86-20.61-53.82-29.34-86.08-25.94-21.94,2.31-42.7,11.32-60.02,26.04-17.3,14.7-29.59,33.75-35.54,55.09-1.34,4.79-2.15,9.65-2.94,14.34-.39,2.34-.8,4.77-1.26,7.12l-.07,.36v17.78l.07,.36c.44,2.27,.79,4.64,1.14,6.93,.56,3.71,1.13,7.56,2.1,11.37,4.91,19.2,14.21,36.1,27.63,50.23l.4,.41c.14,.15,.32,.32,.45,.47-5.04,12.67-7.1,26.84-6.28,43.31,.09,1.87,.46,3.66,.82,5.39,.54,2.6,1.05,5.05,.29,6.65-1.09,2.29-3.17,4.4-5.39,6.62-1.13,1.14-2.3,2.32-3.39,3.58-7.23,8.36-6.6,18.86,1.55,26.12,20.81,18.53,39.68,35.24,57.7,51.08,3.78,3.33,8.06,4.97,12.3,4.97,4.93,0,9.82-2.23,13.82-6.63,4.22-4.65,7.94-8.85,11.36-12.86,.61-.72,.89-.82,1.64-.82,12.65-.07,24.54-2.44,35.33-7.04,.19-.08,.33-.13,.44-.17,.06,.05,.13,.12,.22,.21,4.09,4.27,8.34,8.49,12.45,12.57,1.3,1.29,2.59,2.57,3.89,3.86,10.88,10.84,23.81,10.88,34.6,.11,16.33-16.31,32.64-32.64,48.96-48.96l4.26-4.26c.73-.72,1.56-1.53,2.29-2.51,3.34-4.48,2.85-10.52-1.17-14.37-3.88-3.72-9.63-4.07-13.97-.85-1.02,.75-1.86,1.61-2.61,2.37l-.41,.41c-12.16,12.15-24.32,24.31-36.47,36.47l-6.42,6.42c-3.54,3.53-7.07,7.07-10.59,10.61-.57,.57-.96,.78-1.13,.86-.03-.03-.07-.06-.12-.1-4.09-3.93-8-7.93-12.14-12.17-.62-.63-1.23-1.26-1.85-1.89,5.7-4.36,11.17-9.58,16.94-16.17,7.35-8.38,14.87-16.86,22.15-25.06,3.04-3.43,6.09-6.86,9.13-10.3,4.43-5.01,8.87-10.01,13.31-15.02,10-11.28,20.33-22.94,30.46-34.45,6.04-6.86,8.49-15.61,6.73-24.01-1.7-8.09-7.1-14.92-14.9-18.93,2.24-6.75,2.13-13.31-.35-19.56-2.42-6.09-6.74-10.87-12.87-14.22,5.44-13.52,2.97-25.37-7.11-33.66-9.67-7.96-21.74-8.48-32.87-1.62-5.28-7.05-12.42-11.22-20.33-11.81-8.61-.64-16.93,3.06-23.44,10.42-11.12,12.57-22.24,25.14-33.38,37.69-4.79-7.3-12.31-11.94-20.89-12.71-10.66-.95-20.8,4.06-27.14,13.42-7.74,11.43-16.23,22.69-24.44,33.59-3.25,4.31-6.61,8.77-9.89,13.19-17.32-21.42-23.98-46.08-19.77-73.31,3.7-23.96,17.69-45.82,38.39-59.99,20.75-14.21,46.28-19.36,70.04-14.13,17.6,3.87,33.03,12.22,45.84,24.81,5.47,5.38,11.34,5.41,16.98,.1,.32-.3,.63-.6,.94-.9l.61-.59c26.09-24.88,65.79-31.78,98.79-17.18,28.01,12.39,47.35,36.52,53.05,66.2,5.73,29.84-3.38,59.61-24.99,81.69-7.11,7.26-14.44,14.56-21.52,21.61-4.36,4.34-8.73,8.69-13.07,13.05-2.66,2.68-4.05,5.74-4,8.86,.04,2.8,1.23,5.4,3.44,7.5,4.52,4.3,11.1,3.88,16-1,3.34-3.34,6.7-6.66,10.06-9.98,8.55-8.45,17.39-17.19,25.84-26.06,24.67-25.9,35.03-57.03,30.79-92.52-4-33.53-22.91-63.18-51.87-81.34ZM67.52,281.13c-3.36-18.94-2.07-35.12,3.93-49.46,1.97-4.72,3.81-8.12,5.97-11.04,12.55-17.02,25.11-34,37.35-50.48,2.66-3.58,5.34-3.34,7.12-2.86,2.23,.6,3.99,2.78,4.3,5.28,.16,1.3-.17,2.58-1.03,4.03-.85,1.42-1.71,2.83-2.57,4.23-.68,1.11-1.36,2.22-2.03,3.33-5.53,9.18-.39,14.27,2.07,16.03,5.01,3.59,10.85,2.52,15.61-2.85,8.71-9.82,17.41-19.66,26.11-29.49l17.6-19.89c3.93-4.45,7.86-8.9,11.83-13.32,1.64-1.83,4.92-4.45,8.43-1.38,1.11,.97,1.71,2.12,1.79,3.43,.11,1.63-.63,3.43-2.07,5.07-11.75,13.32-23.52,26.61-35.29,39.9l-12.22,13.8c-.19,.21-.38,.42-.57,.63-.4,.44-.8,.87-1.18,1.33-4.22,5.15-3.96,11.61,.63,15.71,4.6,4.1,11.36,3.54,15.75-1.31,4.03-4.45,8.06-9.02,11.95-13.44,1.52-1.73,3.04-3.45,4.57-5.17l13.34-15.08c10.76-12.17,21.53-24.33,32.31-36.49,2.77-3.12,6.05-3.59,8.78-1.25,3.88,3.33,1.65,7.12-.03,9.08-.38,.45-.77,.88-1.17,1.32l-11.6,13.1c-16.2,18.3-32.4,36.6-48.61,54.9-1.25,1.42-2.97,3.36-3.6,6.19-1.03,4.69,1.34,9.72,5.65,11.96,4.57,2.37,9.65,1.38,13.24-2.59,5.37-5.94,10.75-12.03,15.96-17.92l4.82-5.45c3.88-4.38,7.76-8.76,11.63-13.15,5.61-6.34,11.22-12.68,16.84-19.02,1.61-1.81,3.42-2.86,5.11-2.95,1.34-.06,2.61,.44,3.8,1.52,2.58,2.35,2.42,5.67-.41,8.88-10.25,11.6-20.52,23.18-30.78,34.77l-13.93,15.73c-.38,.43-.77,.86-1.16,1.3-1.12,1.25-2.28,2.54-3.38,3.9-4.05,4.97-3.71,11.29,.83,15.37,4.65,4.18,11.16,3.74,15.47-1.04,6.24-6.91,12.51-14,18.57-20.86,2.23-2.52,4.46-5.04,6.69-7.56,1.55-1.74,3.09-3.49,4.63-5.24,2.87-3.25,5.83-6.62,8.77-9.89,1.56-1.73,3.31-2.72,4.95-2.8,1.31-.05,2.53,.45,3.66,1.5,3.21,2.97,1.48,6.31-.53,8.59l-16.82,19.02c-19.69,22.27-40.05,45.29-60.14,67.87-15.07,16.94-34.32,25.17-57.24,24.46-4.81-.15-8.62,1.53-11.67,5.14-3.25,3.84-6.57,7.55-10.08,11.48-.62,.7-1.25,1.4-1.88,2.1l-52.7-46.67c.36-.41,.72-.83,1.09-1.24,2.77-3.16,5.38-6.14,8.08-9.1,3.15-3.45,4.28-7.36,3.46-11.96Z"/>
  <path class="cls-1" d="M290.73,267.01c-5.86,.14-10.63,5.01-10.63,10.85,0,2.86,1.22,5.69,3.35,7.76,2.06,2,4.8,3.14,7.56,3.14,.09,0,.18,0,.27,0,5.9-.16,10.52-4.94,10.51-10.89,0-3-1.15-5.77-3.24-7.81-2.08-2.03-4.83-3.1-7.82-3.03Z"/>
</svg>